<svg width="40" height="40" viewBox="0 0 40 40" fill="none" xmlns="http://www.w3.org/2000/svg">
<rect width="40" height="40" rx="4" fill="#8785AC" style="mix-blend-mode:darken"/>
<path d="M13.684 20.315V14.3657C13.684 13.7825 13.889 13.2869 14.2988 12.8791C14.7086 12.4713 15.2054 12.2669 15.7893 12.266C16.3732 12.2651 16.8705 12.4694 17.2812 12.8791C17.692 13.2888 17.8964 13.7843 17.8946 14.3657V20.315C17.8946 20.8982 17.6901 21.3942 17.2812 21.803C16.8723 22.2117 16.375 22.4156 15.7893 22.4147C15.2036 22.4138 14.7067 22.2099 14.2988 21.803C13.8908 21.3961 13.6859 20.9001 13.684 20.315ZM20.7016 20V8.76643C20.7016 8.18317 20.9065 7.68763 21.3163 7.27981C21.7261 6.872 22.223 6.66762 22.8069 6.66669C23.3907 6.66576 23.888 6.87013 24.2988 7.27981C24.7095 7.68949 24.914 8.18503 24.9121 8.76643V20C24.9121 20.6999 24.696 21.2249 24.2637 21.5748C23.8314 21.9248 23.3458 22.0997 22.8069 22.0997C22.2679 22.0997 21.7828 21.9248 21.3514 21.5748C20.9201 21.2249 20.7035 20.6999 20.7016 20ZM6.6665 24.8294V19.965C6.6665 19.3818 6.87142 18.8862 7.28124 18.4784C7.69107 18.0706 8.18791 17.8662 8.77177 17.8653C9.35563 17.8643 9.85294 18.0687 10.2637 18.4784C10.6745 18.8881 10.8789 19.3836 10.877 19.965V24.8294C10.877 25.5293 10.6609 26.0543 10.2286 26.4042C9.79633 26.7542 9.31071 26.9291 8.77177 26.9291C8.23282 26.9291 7.74767 26.7542 7.31633 26.4042C6.88498 26.0543 6.66838 25.5293 6.6665 24.8294ZM10.0349 33.3333C9.42674 33.3333 8.9996 33.0478 8.75352 32.4766C8.50744 31.9055 8.60709 31.3978 9.05247 30.9536L14.8069 25.2144C15.0642 24.9577 15.3743 24.8177 15.7374 24.7944C16.1004 24.7711 16.4218 24.8877 16.7016 25.1444L20.7016 28.5739L28.5612 20.7349H27.7191C27.3215 20.7349 26.9884 20.6005 26.7198 20.3318C26.4513 20.063 26.3166 19.7308 26.3156 19.3351C26.3147 18.9394 26.4494 18.6072 26.7198 18.3384C26.9902 18.0697 27.3233 17.9353 27.7191 17.9353H31.9297C32.3273 17.9353 32.6609 18.0697 32.9304 18.3384C33.1998 18.6072 33.3341 18.9394 33.3332 19.3351V23.5346C33.3332 23.9312 33.1984 24.2639 32.929 24.5326C32.6595 24.8014 32.3264 24.9353 31.9297 24.9344C31.5329 24.9335 31.1998 24.7991 30.9304 24.5312C30.6609 24.2634 30.5261 23.9312 30.5261 23.5346V22.6947L21.7542 31.4436C21.4969 31.7002 21.1867 31.8402 20.8237 31.8635C20.4607 31.8869 20.1392 31.7702 19.8595 31.5136L15.8595 28.084L11.0174 32.9134C10.9004 33.03 10.7545 33.1294 10.5795 33.2116C10.4045 33.2937 10.223 33.3343 10.0349 33.3333Z" fill="#F2F7FD"/>
</svg>
