<svg width="24" height="24" viewBox="0 0 24 24" fill="none" xmlns="http://www.w3.org/2000/svg">
<path d="M11.9997 7.68737C11.1467 7.68737 10.313 7.9403 9.60377 8.41416C8.89459 8.88802 8.34184 9.56154 8.01544 10.3496C7.68904 11.1376 7.60363 12.0047 7.77003 12.8412C7.93643 13.6777 8.34716 14.4462 8.95027 15.0493C9.55339 15.6524 10.3218 16.0631 11.1583 16.2295C11.9949 16.3959 12.862 16.3105 13.65 15.9841C14.438 15.6577 15.1115 15.105 15.5854 14.3958C16.0592 13.6866 16.3122 12.8528 16.3122 11.9999C16.3107 10.8566 15.8559 9.76055 15.0474 8.95212C14.239 8.14369 13.143 7.68886 11.9997 7.68737ZM11.9997 15.1874C11.3692 15.1874 10.753 15.0004 10.2288 14.6502C9.70461 14.2999 9.29606 13.8021 9.0548 13.2197C8.81355 12.6372 8.75043 11.9963 8.87342 11.378C8.99641 10.7597 9.29999 10.1918 9.74577 9.74597C10.1915 9.30019 10.7595 8.99661 11.3778 8.87362C11.9961 8.75063 12.637 8.81375 13.2195 9.05501C13.8019 9.29626 14.2997 9.70481 14.65 10.229C15.0002 10.7532 15.1872 11.3694 15.1872 11.9999C15.1872 12.8453 14.8513 13.656 14.2536 14.2538C13.6558 14.8515 12.845 15.1874 11.9997 15.1874ZM20.0622 12.2661C20.0678 12.0889 20.0678 11.9108 20.0622 11.7336L21.4994 9.93737C21.5543 9.86861 21.5923 9.78792 21.6104 9.70179C21.6285 9.61565 21.6261 9.52648 21.6034 9.44144C21.3786 8.594 21.0419 7.78029 20.6022 7.02175C20.5585 6.94476 20.4973 6.87917 20.4235 6.8303C20.3497 6.78143 20.2654 6.75066 20.1775 6.7405L17.8853 6.48644C17.7647 6.35706 17.6397 6.23206 17.5103 6.11144L17.2553 3.81831C17.2451 3.73039 17.2144 3.6461 17.1655 3.57231C17.1166 3.49851 17.051 3.43729 16.974 3.39362C16.2164 2.95521 15.404 2.61916 14.5581 2.39425C14.4728 2.37197 14.3835 2.37004 14.2974 2.3886C14.2113 2.40716 14.1307 2.44571 14.0622 2.50112L12.2622 3.94206C12.085 3.93644 11.9069 3.93644 11.7297 3.94206L9.93717 2.50019C9.86841 2.44525 9.78772 2.40722 9.70158 2.38914C9.61545 2.37107 9.52627 2.37346 9.44123 2.39612C8.5938 2.62098 7.78009 2.95769 7.02154 3.39737C6.94456 3.44104 6.87896 3.50226 6.83009 3.57606C6.78122 3.64985 6.75046 3.73414 6.74029 3.82206L6.48998 6.11425C6.36061 6.2355 6.23561 6.3605 6.11498 6.48925L3.82092 6.74987C3.733 6.76003 3.64871 6.7908 3.57492 6.83967C3.50112 6.88854 3.4399 6.95414 3.39623 7.03112C2.95782 7.78874 2.62177 8.60113 2.39686 9.44706C2.37512 9.53127 2.3732 9.61937 2.39126 9.70445C2.40931 9.78952 2.44685 9.86925 2.50092 9.93737L3.94186 11.7374C3.93623 11.9146 3.93623 12.0927 3.94186 12.2699L2.49998 14.0671C2.44505 14.1358 2.40702 14.2165 2.38894 14.3026C2.37087 14.3888 2.37326 14.478 2.39592 14.563C2.62117 15.4088 2.95787 16.2209 3.39717 16.978C3.44084 17.055 3.50206 17.1206 3.57585 17.1694C3.64965 17.2183 3.73393 17.2491 3.82186 17.2592L6.11404 17.5133C6.23529 17.6427 6.36029 17.7677 6.48905 17.8883L6.74967 20.1786C6.75983 20.2665 6.7906 20.3508 6.83947 20.4246C6.88834 20.4984 6.95393 20.5596 7.03092 20.6033C7.78853 21.0417 8.60092 21.3778 9.44686 21.6027C9.5319 21.6253 9.62107 21.6277 9.70721 21.6097C9.79334 21.5916 9.87403 21.5536 9.94279 21.4986L11.7334 20.0624C11.9106 20.068 12.0887 20.068 12.2659 20.0624L14.0669 21.5042C14.1667 21.5839 14.2907 21.6272 14.4184 21.6271C14.4671 21.6269 14.5156 21.6206 14.5628 21.6083C15.4086 21.3831 16.2207 21.0464 16.9778 20.6071C17.0548 20.5634 17.1204 20.5022 17.1692 20.4284C17.2181 20.3546 17.2489 20.2703 17.259 20.1824L17.5131 17.8902C17.6425 17.7696 17.7675 17.6446 17.8881 17.5152L20.1812 17.2602C20.2692 17.25 20.3534 17.2193 20.4272 17.1704C20.501 17.1215 20.5623 17.0559 20.6059 16.9789C21.0445 16.2214 21.3806 15.409 21.6053 14.563C21.628 14.478 21.6303 14.3888 21.6123 14.3026C21.5942 14.2165 21.5562 14.1358 21.5012 14.0671L20.0622 12.2661ZM19.7715 16.1689L17.5553 16.4155C17.4168 16.4315 17.2892 16.4983 17.1972 16.603C17.0119 16.8117 16.8143 17.0093 16.6056 17.1946C16.5009 17.2866 16.4341 17.4142 16.4181 17.5527L16.1715 19.768C15.6527 20.0447 15.1075 20.2689 14.544 20.4374L12.8031 19.0442C12.7033 18.9646 12.5793 18.9213 12.4515 18.9214H12.4178C12.1393 18.9374 11.8601 18.9374 11.5815 18.9214C11.4424 18.9129 11.3051 18.9564 11.1962 19.0433L9.45623 20.4374C8.89332 20.268 8.34874 20.0428 7.83061 19.7652L7.58404 17.5508C7.56808 17.4123 7.50126 17.2847 7.39654 17.1927C7.18781 17.0074 6.99028 16.8099 6.80498 16.6011C6.71296 16.4964 6.58534 16.4296 6.44686 16.4136L4.23154 16.1671C3.95512 15.6497 3.73089 15.1061 3.56217 14.5442L4.95529 12.8033C5.04225 12.6944 5.08568 12.5571 5.07717 12.418C5.06123 12.1395 5.06123 11.8603 5.07717 11.5817C5.08568 11.4426 5.04225 11.3053 4.95529 11.1964L3.56217 9.45644C3.73153 8.89353 3.95671 8.34894 4.23436 7.83081L6.44873 7.58425C6.58722 7.56828 6.71484 7.50147 6.80686 7.39675C6.99215 7.18802 7.18969 6.99048 7.39842 6.80519C7.50314 6.71317 7.56995 6.58554 7.58592 6.44706L7.83248 4.23175C8.34987 3.95533 8.89349 3.73109 9.45529 3.56237L11.1962 4.9555C11.3051 5.04245 11.4424 5.08588 11.5815 5.07737C11.8601 5.06144 12.1393 5.06144 12.4178 5.07737C12.5569 5.08588 12.6942 5.04245 12.8031 4.9555L14.5431 3.56237C15.106 3.73173 15.6506 3.95691 16.1687 4.23456L16.4153 6.45081C16.4313 6.58929 16.4981 6.71692 16.6028 6.80894C16.8115 6.99423 17.0091 7.19177 17.1944 7.4005C17.2864 7.50522 17.414 7.57203 17.5525 7.588L19.7678 7.83456C20.0441 8.35135 20.2683 8.89433 20.4372 9.4555L19.044 11.1964C18.9571 11.3053 18.9137 11.4426 18.9222 11.5817C18.9381 11.8603 18.9381 12.1395 18.9222 12.418C18.9137 12.5571 18.9571 12.6944 19.044 12.8033L20.4372 14.5433C20.2684 15.1062 20.0439 15.6507 19.7669 16.1689H19.7715Z" fill="black"/>
</svg>
